# xmcd CD database file
#
# Track frame offsets:
#	150
#	27782
#	51347
#	66431
#	88473
#	105662
#	120700
#	138221
#	164301
#	192378
#	214146
#	228281
#	248339
#	282069
#	314752
#	331291
#
# Disc length: 4706 seconds
#
# Revision: 1
# Processed by: cddbd v1.5.2PL0 Copyright (c) Steve Scherf et al.
# Submitted via: CDex 1.51
#
DISCID=e9126010
DTITLE=Various Artist - Jazz For Summer [CD 1)
DYEAR=2009
DGENRE=Jazz
TTITLE0=Woody B feat. Brent St.Clair - Holdin  On (After Time Mix)
TTITLE1=Club Des Belugas - What Is Jazz
TTITLE2=Jazeel - Yellow Bird
TTITLE3=De-Phazz - Cut The Jazz
TTITLE4=Dzihan and Kamien - Stiff Jazz
TTITLE5=Jazbeat - I Love You
TTITLE6=Tape Five - Soulsalicious
TTITLE7=Doctor Abstract - Struck On Jazz
TTITLE8=Big Bang - Yo Yo Jazz
TTITLE9=The Juju Orchestra - What S Hip?
TTITLE10=G-Swing  Feat. Ania Chow - Sing Sing Sing
TTITLE11=Club Des Belugas - It Don T Mean A Thing
TTITLE12=Quantic - Mishaps Happening
TTITLE13=South Froggies - Transition
TTITLE14=Tm Juke - Playground Games (Diesler Mix)
TTITLE15=Jojo Effect feat. Iain MacKenzie - The Swing Ding Dong
EXTD=YEAR: 2009
EXTT0=
EXTT1=
EXTT2=
EXTT3=
EXTT4=
EXTT5=
EXTT6=
EXTT7=
EXTT8=
EXTT9=
EXTT10=
EXTT11=
EXTT12=
EXTT13=
EXTT14=
EXTT15=
PLAYORDER=
